<?xml version="1.0" encoding="UTF-8"?>
<svg width="250" height="60" viewBox="0 0 250 60" fill="none" xmlns="http://www.w3.org/2000/svg">
  <!-- Shamrock -->
  <path d="M30 25C30 25 28 15 35 15C42 15 40 25 40 25C40 25 50 23 50 30C50 37 40 35 40 35C40 35 42 45 35 45C28 45 30 35 30 35C30 35 20 37 20 30C20 23 30 25 30 25Z" fill="#009A49"/>
  <path d="M35 15C35 15 40 5 50 5C60 5 55 15 55 15C55 15 65 13 65 20C65 27 55 25 55 25C55 25 60 35 50 35C40 35 35 25 35 25C35 25 25 27 25 20C25 13 35 15 35 15Z" fill="#FF883E"/>
  
  <!-- Text -->
  <path d="M80 15H90V45H85V30H80V45H75V15H80Z" fill="#009A49"/>
  <path d="M100 15H110V20H100V25H110V30H100V35H110V40H100V45H95V15H100Z" fill="#FF883E"/>
  <path d="M120 15H130V45H125V30H120V45H115V15H120Z" fill="#009A49"/>
  <path d="M135 15H150V20H140V25H150V30H140V35H150V40H140V45H135V15Z" fill="#FF883E"/>
  <path d="M155 15H170V20H160V25H170V30H160V35H170V40H160V45H155V15Z" fill="#009A49"/>
  <path d="M175 15H190V20H180V25H185V30H180V35H190V40H180V45H175V15Z" fill="#FF883E"/>
  <path d="M195 15H200V45H195V15Z" fill="#009A49"/>
  <path d="M205 15H220V20H210V25H220V30H210V35H220V40H210V45H205V15Z" fill="#FF883E"/>
  <path d="M225 15H240V20H225V25H235V30H225V35H240V40H235V45H225V15Z" fill="#009A49"/>
  
  <!-- Ireland Text -->
  <path d="M80 50H85V55H80V50Z" fill="#FF883E"/>
  <path d="M90 50H95V55H90V50Z" fill="#FF883E"/>
  <path d="M100 50H105V55H100V50Z" fill="#FF883E"/>
  <path d="M110 50H115V55H110V50Z" fill="#FF883E"/>
  <path d="M120 50H125V55H120V50Z" fill="#FF883E"/>
  <path d="M130 50H135V55H130V50Z" fill="#FF883E"/>
  <path d="M140 50H145V55H140V50Z" fill="#FF883E"/>
</svg>
